<svg width="56" height="56" viewBox="0 0 56 56" fill="none" xmlns="http://www.w3.org/2000/svg">
<path d="M49 18.6667C51.5774 18.6667 53.6666 20.756 53.6666 23.3334V32.6667C53.6666 35.2441 51.5774 37.3334 49 37.3334H46.5222C45.374 46.5414 37.519 53.6667 28 53.6667V49C35.7319 49 42 42.732 42 35V21C42 13.2681 35.7319 7.00004 28 7.00004C20.268 7.00004 14 13.2681 14 21V37.3334H6.99998C4.42265 37.3334 2.33331 35.2441 2.33331 32.6667V23.3334C2.33331 20.756 4.42265 18.6667 6.99998 18.6667H9.47772C10.626 9.45865 18.4809 2.33337 28 2.33337C37.519 2.33337 45.374 9.45865 46.5222 18.6667H49ZM18.1053 36.8315L20.579 32.8737C22.7304 34.2212 25.2742 35 28 35C30.7258 35 33.2696 34.2212 35.4209 32.8737L37.8947 36.8315C35.0261 38.6281 31.6344 39.6667 28 39.6667C24.3656 39.6667 20.9739 38.6281 18.1053 36.8315Z" fill="#1A73E8"/>
</svg>
